<?xml version="1.0" standalone="no"?>
<!DOCTYPE svg PUBLIC "-//W3C//DTD SVG 20010904//EN"
 "http://www.w3.org/TR/2001/REC-SVG-20010904/DTD/svg10.dtd">
<svg version="1.0" xmlns="http://www.w3.org/2000/svg"
 width="170.000000pt" height="40.000000pt" viewBox="0 0 170.000000 40.000000"
 preserveAspectRatio="xMidYMid meet">

<g transform="translate(0.000000,40.000000) scale(0.100000,-0.100000)"
fill="#000000" stroke="none">
<path d="M155 371 c-55 -25 -92 -67 -106 -121 -28 -107 30 -199 146 -231 75
-21 171 28 206 105 72 158 -89 320 -246 247z m65 -38 c0 -5 -14 -16 -32 -26
-29 -17 -30 -17 -17 -1 13 16 12 17 -6 11 -20 -7 -20 -7 -1 8 21 16 56 20 56
8z m100 -98 c8 -9 9 -15 2 -15 -6 0 -14 5 -18 11 -4 8 -10 7 -18 -1 -8 -9 -8
-14 0 -17 6 -2 19 -9 28 -16 20 -15 12 -47 -13 -47 -23 0 -47 17 -37 27 5 4
11 2 13 -4 6 -17 33 -17 33 0 0 8 -11 19 -25 25 -38 17 -31 48 11 51 6 1 17
-6 24 -14z m-159 -25 c6 -16 15 -30 19 -30 4 0 13 14 19 30 7 20 17 30 30 30
22 0 25 -16 11 -60 -7 -22 -8 -20 -10 15 l-1 40 -22 -42 c-11 -24 -24 -43 -27
-43 -3 0 -16 20 -28 45 -12 25 -17 45 -11 45 5 0 15 -13 20 -30z m14 -106 c-9
-9 -19 -13 -23 -10 -3 4 0 11 8 16 24 15 33 11 15 -6z"/>
<path d="M470 233 c0 -10 3 -35 6 -55 6 -36 9 -38 44 -38 35 0 38 2 44 38 8
52 7 72 -3 72 -6 0 -13 -20 -17 -45 -5 -34 -11 -45 -25 -45 -13 0 -19 11 -25
45 -6 43 -24 64 -24 28z"/>
<path d="M600 240 c0 -5 5 -10 10 -10 6 0 10 5 10 10 0 6 -4 10 -10 10 -5 0
-10 -4 -10 -10z"/>
<path d="M640 220 c0 -29 2 -30 46 -30 59 0 55 -24 -4 -28 -62 -5 -51 -22 13
-22 l55 0 0 35 c0 35 0 35 -45 35 -25 0 -45 5 -45 10 0 6 20 10 45 10 25 0 45
5 45 10 0 6 -25 10 -55 10 -54 0 -55 0 -55 -30z"/>
<path d="M770 240 c0 -5 5 -10 10 -10 6 0 10 5 10 10 0 6 -4 10 -10 10 -5 0
-10 -4 -10 -10z"/>
<path d="M818 199 c-1 -28 -1 -53 1 -55 2 -2 26 -4 53 -4 l48 0 0 55 0 55 -49
0 -49 0 -4 -51z m82 -4 c0 -32 -2 -35 -30 -35 -28 0 -30 3 -30 35 0 32 2 35
30 35 28 0 30 -3 30 -35z"/>
<path d="M950 195 c0 -30 5 -55 10 -55 6 0 10 14 10 31 l0 30 30 -18 c17 -9
30 -23 30 -30 0 -7 5 -13 10 -13 6 0 10 25 10 55 0 59 -17 76 -22 24 l-3 -32
-34 32 c-18 17 -35 31 -37 31 -2 0 -4 -25 -4 -55z"/>
<path d="M1080 195 c0 -30 5 -55 10 -55 6 0 10 14 10 31 l0 30 30 -18 c17 -9
30 -23 30 -30 0 -7 5 -13 10 -13 6 0 10 25 10 55 0 59 -17 76 -22 24 l-3 -32
-34 32 c-18 17 -35 31 -37 31 -2 0 -4 -25 -4 -55z"/>
<path d="M1210 195 c0 -30 5 -55 10 -55 6 0 10 5 10 10 0 6 14 10 30 10 17 0
30 -4 30 -10 0 -5 5 -10 10 -10 6 0 10 25 10 55 l0 55 -50 0 -50 0 0 -55z m80
15 c0 -16 -7 -20 -30 -20 -23 0 -30 4 -30 20 0 16 7 20 30 20 23 0 30 -4 30
-20z"/>
<path d="M1340 240 c0 -5 5 -10 10 -10 6 0 10 5 10 10 0 6 -4 10 -10 10 -5 0
-10 -4 -10 -10z"/>
<path d="M1380 195 c0 -30 5 -55 10 -55 6 0 10 5 10 10 0 6 11 10 24 10 14 0
28 -4 31 -10 10 -17 25 -11 18 7 -4 11 -3 14 5 9 9 -5 12 6 12 38 l0 46 -55 0
-55 0 0 -55z m88 13 c-4 -33 -62 -32 -66 0 -3 19 1 22 33 22 32 0 36 -3 33
-22z"/>
<path d="M1510 195 l0 -55 55 0 c30 0 55 5 55 10 0 6 -20 10 -45 10 -33 0 -45
4 -45 15 0 11 12 15 45 15 25 0 45 5 45 10 0 6 -20 10 -45 10 -25 0 -45 5 -45
10 0 6 14 10 31 10 17 0 28 4 24 10 -3 6 -22 10 -41 10 l-34 0 0 -55z"/>
<path d="M600 180 c0 -22 5 -40 10 -40 6 0 10 18 10 40 0 22 -4 40 -10 40 -5
0 -10 -18 -10 -40z"/>
<path d="M1340 180 c0 -22 5 -40 10 -40 6 0 10 18 10 40 0 22 -4 40 -10 40 -5
0 -10 -18 -10 -40z"/>
<path d="M770 175 c0 -19 5 -35 10 -35 6 0 10 16 10 35 0 19 -4 35 -10 35 -5
0 -10 -16 -10 -35z"/>
</g>
</svg>
